<?xml version="1.0" standalone="no"?>
<!DOCTYPE svg PUBLIC "-//W3C//DTD SVG 20010904//EN"
 "http://www.w3.org/TR/2001/REC-SVG-20010904/DTD/svg10.dtd">
<svg version="1.0" xmlns="http://www.w3.org/2000/svg"
 width="100.000000pt" height="100.000000pt" viewBox="0 0 100.000000 100.000000"
 preserveAspectRatio="xMidYMid meet">

<g transform="translate(0.000000,100.000000) scale(0.100000,-0.100000)"
fill="#000000" stroke="none">
<path d="M450 616 c0 -19 -6 -25 -27 -28 -22 -2 -33 -13 -52 -52 l-25 -49 -16
49 -17 49 -61 3 c-51 2 -65 -1 -82 -18 -38 -38 -18 -135 30 -141 38 -4 60 2
60 17 0 12 -7 15 -25 12 -39 -8 -57 12 -53 57 l3 40 53 3 c58 3 58 3 85 -97
11 -41 11 -44 -16 -65 -32 -25 -34 -36 -9 -36 29 0 48 28 80 115 23 62 34 81
51 83 19 3 21 -1 21 -47 0 -31 6 -55 15 -64 35 -36 156 -33 175 4 14 25 -1 54
-36 71 -47 23 -27 33 63 33 60 0 88 -4 91 -12 2 -8 -5 -13 -20 -13 -34 0 -68
-27 -68 -55 0 -34 32 -53 77 -46 34 6 38 10 41 39 l3 32 70 0 c52 0 70 3 67
13 -3 7 -29 13 -71 15 -37 2 -67 7 -67 12 0 6 -9 19 -20 30 -17 17 -33 20
-109 20 -68 0 -93 -4 -105 -16 -29 -28 -19 -46 50 -91 17 -10 17 -13 4 -22
-21 -15 -103 -14 -118 1 -7 7 -12 31 -12 54 0 35 4 43 20 46 29 4 30 22 3 26
-17 3 -23 10 -23 28 0 15 -6 24 -15 24 -9 0 -15 -9 -15 -24z m310 -135 c0 -20
-30 -33 -50 -21 -20 13 -3 40 25 40 18 0 25 -5 25 -19z"/>
</g>
</svg>
